<?xml version="1.0" encoding="utf-8"?>
<!-- Generator: Adobe Illustrator 27.6.1, SVG Export Plug-In . SVG Version: 6.00 Build 0)  -->
<svg version="1.1" id="Warstwa_1" xmlns="http://www.w3.org/2000/svg" xmlns:xlink="http://www.w3.org/1999/xlink" x="0px" y="0px"
	 viewBox="0 0 3713.93 1080" style="enable-background:new 0 0 3713.93 1080;" xml:space="preserve">
<style type="text/css">
	.st0{fill:#485AFF;}
	.st1{fill:#FFFFFF;}
</style>
<path class="st0" d="M766,960H98c-27.61,0-50-22.39-50-50V242c0-27.61,22.39-50,50-50h668c27.61,0,50,22.39,50,50v668
	C816,937.61,793.61,960,766,960z"/>
<g>
	<path class="st1" d="M536.04,823.31v82.12c0,3.63-2.94,6.58-6.58,6.58h-64.21c-46.3,0-71.52-24.33-77.22-73.75
		c-0.38-3.3-3.2-5.78-6.53-5.78l0,0c-3.06,0-5.75,2.1-6.41,5.09C363.73,889.04,320.84,912,260.73,912
		c-82.15,0-124.98-40.2-124.98-123.23c0-99.64,65.55-143.34,173.92-143.34h59.85c3.63,0,6.58-2.94,6.58-6.58V609.6
		c0-47.2-18.35-70.79-64.68-70.79c-37.64,0-63.02,19.14-83.32,49.56c-2.21,3.32-6.86,3.9-9.83,1.24l-62.4-55.63
		c-2.52-2.25-2.93-6.04-0.95-8.78c37.18-51.3,86.49-82.53,167.86-82.53c118.86,0,175.67,56.81,175.67,166.93v200.55
		c0,3.63,2.94,6.58,6.58,6.58h24.43C533.09,816.73,536.04,819.67,536.04,823.31z"/>
	<path class="st1" d="M689.04,912h-90c-8.28,0-15-6.72-15-15V255c0-8.28,6.72-15,15-15h90c8.28,0,15,6.72,15,15v642
		C704.04,905.28,697.32,912,689.04,912z"/>
</g>
<path class="st0" d="M864,868.77v-9.54c0-24.79,15.26-43.23,46.41-43.23c31.15,0,46.41,18.44,46.41,43.23v9.54
	c0,24.79-15.26,43.23-46.41,43.23C879.26,912,864,893.56,864,868.77z"/>
<g>
	<path d="M1322.48,912c-35.61,0-54.65-22.1-59.53-53.62c-0.15-0.98-0.98-1.71-1.97-1.71l0,0c-0.87,0-1.63,0.57-1.9,1.39
		c-13.09,40.43-48.44,61.57-96.23,61.57c-68.05,0-106.85-38.8-106.85-98.58c0-65.51,48.97-99.22,141.19-99.22h44.78
		c8.28,0,15-6.72,15-15v-12.98c0-40.07-21.62-63.6-68.05-63.6c-32.08,0-53.73,13.05-69.61,32.31c-5.45,6.61-15.31,7.34-21.66,1.58
		l-19.46-17.66c-5.72-5.19-6.52-13.84-1.95-20.07c22.67-30.95,59.75-52.77,117.13-52.77c85.22,0,132.92,41.98,132.92,115.75v151
		c0,8.28,6.72,15,15,15h4.98c8.28,0,15,6.72,15,15V897c0,8.28-6.72,15-15,15H1322.48z M1256.98,814.06v-32.7c0-8.28-6.72-15-15-15
		h-43.51c-48.34,0-71.87,15.9-71.87,44.52v11.45c0,29.26,21.62,44.52,55.97,44.52C1225.18,866.84,1256.98,846.49,1256.98,814.06z"/>
	<path d="M1635.43,857.3L1635.43,857.3c-0.79,0-1.48,0.49-1.76,1.22c-14.28,38.07-48.98,61.11-92.41,61.11
		c-83.32,0-131.65-64.24-131.65-172.99c0-108.76,48.34-172.99,131.65-172.99c43.43,0,78.13,22.42,92.41,61.1
		c0.27,0.74,0.97,1.23,1.75,1.23l0,0c1.04,0,1.87-0.84,1.87-1.87V456.36c0-8.28,6.72-15,15-15h39.32c8.28,0,15,6.72,15,15V897
		c0,8.28-6.72,15-15,15h-39.32c-8.28,0-15-6.72-15-15v-37.82C1637.3,858.14,1636.46,857.3,1635.43,857.3z M1637.3,803.24V690.04
		c0-33.71-33.07-56.6-75.05-56.6c-47.7,0-79.5,33.71-79.5,84.59v57.24c0,50.88,31.8,84.59,79.5,84.59
		C1604.23,859.85,1637.3,836.95,1637.3,803.24z"/>
	<path d="M1787.35,847.46l22.6-20.67c5.97-5.46,15.18-5.17,20.85,0.6c22.38,22.78,49.47,36.27,83.79,36.27
		c40.07,0,60.42-16.54,60.42-44.52c0-20.99-12.72-36.89-47.06-41.34l-30.53-3.82c-67.42-8.27-108.76-37.52-108.76-98.58
		c0-64.24,50.24-101.76,122.75-101.76c52.68,0,85.12,15.31,112.53,41.58c6.15,5.89,6.1,15.75-0.06,21.64l-20.93,19.99
		c-5.69,5.43-14.61,5.56-20.43,0.26c-17.23-15.67-41.54-27.51-71.11-27.51c-38.16,0-55.97,16.54-55.97,41.34
		c0,25.44,15.9,36.89,50.88,42.61l30.53,3.82c72.5,10.81,104.94,42.61,104.94,96.04c0,63.6-51.52,106.21-131.02,106.21
		c-55.87,0-94.37-18.91-124.19-50.77C1780.85,862.73,1781.15,853.12,1787.35,847.46z"/>
	<path d="M2324.74,581.28h34.86c10.34,0,17.58,10.22,14.15,19.97L2241.5,977.51c-15.9,44.52-35.62,61.69-87.13,61.69h-25.07
		c-8.28,0-15-6.72-15-15v-26.6c0-8.28,6.72-15,15-15h30.23c6.42,0,12.13-4.08,14.2-10.16l13.95-40.92c1.08-3.17,1.07-6.61-0.03-9.77
		l-111.57-320.54c-3.39-9.75,3.84-19.93,14.17-19.93h37.48c6.42,0,12.14,4.09,14.2,10.17l62.52,183.96c0.11,0.32,0.21,0.65,0.3,0.98
		l18.54,69.82c0.24,0.92,1.07,1.56,2.02,1.56l0,0c0.93,0,1.75-0.61,2.01-1.51l20.55-70.36l62.69-184.44
		C2312.61,585.37,2318.32,581.28,2324.74,581.28z"/>
	<path d="M2508.61,912c-47.06,0-70.6-26.08-70.6-68.69V456.36c0-8.28,6.72-15,15-15h39.32c8.28,0,15,6.72,15,15V840.4
		c0,8.28,6.72,15,15,15h15.79c8.28,0,15,6.72,15,15V897c0,8.28-6.72,15-15,15H2508.61z"/>
	<path d="M2861.58,912c-35.61,0-54.65-22.1-59.53-53.62c-0.15-0.98-0.98-1.71-1.97-1.71l0,0c-0.87,0-1.63,0.57-1.9,1.39
		c-13.09,40.43-48.44,61.57-96.23,61.57c-68.05,0-106.85-38.8-106.85-98.58c0-65.51,48.97-99.22,141.19-99.22h44.78
		c8.28,0,15-6.72,15-15v-12.98c0-40.07-21.62-63.6-68.05-63.6c-32.08,0-53.73,13.05-69.61,32.31c-5.45,6.61-15.31,7.34-21.66,1.58
		l-19.46-17.66c-5.72-5.19-6.52-13.84-1.95-20.07c22.67-30.95,59.75-52.77,117.13-52.77c85.22,0,132.92,41.98,132.92,115.75v151
		c0,8.28,6.72,15,15,15h4.98c8.28,0,15,6.72,15,15V897c0,8.28-6.72,15-15,15H2861.58z M2796.08,814.06v-32.7c0-8.28-6.72-15-15-15
		h-43.51c-48.34,0-71.87,15.9-71.87,44.52v11.45c0,29.26,21.62,44.52,55.97,44.52C2764.28,866.84,2796.08,846.49,2796.08,814.06z"/>
	<path d="M2983.43,441.36h39.32c8.28,0,15,6.72,15,15V634.1c0,1.03,0.84,1.87,1.87,1.87l0,0c0.78,0,1.48-0.49,1.75-1.23
		c14.28-38.68,48.98-61.1,92.41-61.1c83.32,0,131.65,64.24,131.65,172.99c0,108.76-48.34,172.99-131.65,172.99
		c-43.42,0-78.13-23.04-92.41-61.11c-0.27-0.73-0.97-1.22-1.75-1.22h-0.01c-1.03,0-1.87,0.84-1.87,1.87V897c0,8.28-6.72,15-15,15
		h-39.32c-8.28,0-15-6.72-15-15V456.36C2968.43,448.07,2975.14,441.36,2983.43,441.36z M3192.3,775.26v-57.24
		c0-50.88-31.8-84.59-79.5-84.59c-41.98,0-75.05,22.9-75.05,56.6v113.21c0,33.71,33.07,56.6,75.05,56.6
		C3160.5,859.85,3192.3,826.14,3192.3,775.26z"/>
	<path d="M3326.45,847.46l22.6-20.67c5.97-5.46,15.18-5.17,20.85,0.6c22.38,22.78,49.47,36.27,83.79,36.27
		c40.07,0,60.42-16.54,60.42-44.52c0-20.99-12.72-36.89-47.06-41.34l-30.53-3.82c-67.42-8.27-108.76-37.52-108.76-98.58
		c0-64.24,50.24-101.76,122.75-101.76c52.68,0,85.12,15.31,112.53,41.58c6.15,5.89,6.1,15.75-0.06,21.64l-20.93,19.99
		c-5.69,5.43-14.61,5.56-20.43,0.26c-17.23-15.67-41.54-27.51-71.11-27.51c-38.16,0-55.97,16.54-55.97,41.34
		c0,25.44,15.9,36.89,50.88,42.61l30.53,3.82c72.5,10.81,104.94,42.61,104.94,96.04c0,63.6-51.52,106.21-131.02,106.21
		c-55.87,0-94.37-18.91-124.19-50.77C3319.95,862.73,3320.25,853.12,3326.45,847.46z"/>
</g>
</svg>
